<svg width="28" height="28" viewBox="0 0 28 28" fill="none" xmlns="http://www.w3.org/2000/svg">
<path fill-rule="evenodd" clip-rule="evenodd" d="M18.4168 3.11857C22.2309 6.96053 22.5157 13.027 19.3 17.2955L27.5871 25.6432L25.6229 27.6217L17.3566 19.2951C13.1109 22.6879 6.96638 22.4501 3.09596 18.5514C-1.07435 14.3506 -1.02535 7.49045 3.20539 3.22881C7.43614 -1.03284 14.2465 -1.0822 18.4168 3.11857ZM17.6312 3.91018C21.3738 7.6801 21.3298 13.8366 17.533 17.6612C13.7361 21.4858 7.62425 21.53 3.88167 17.7601C0.139092 13.9902 0.183062 7.83367 3.97988 4.00911C7.7767 0.184555 13.8886 0.140264 17.6312 3.91018Z" fill="white"/>
</svg>
